<mxfile host="app.diagrams.net" modified="2022-06-12T08:09:30.949Z" agent="5.0 (X11; Linux x86_64) AppleWebKit/537.36 (KHTML, like Gecko) Chrome/102.0.5005.115 Safari/537.36" etag="ZUf80y_ys_K_R4FpAvjB" version="19.0.3" type="github">
  <diagram id="C5RBs43oDa-KdzZeNtuy" name="Page-1">
    <mxGraphModel dx="599" dy="337" grid="1" gridSize="10" guides="1" tooltips="1" connect="1" arrows="1" fold="1" page="1" pageScale="1" pageWidth="827" pageHeight="1169" math="0" shadow="0">
      <root>
        <mxCell id="WIyWlLk6GJQsqaUBKTNV-0" />
        <mxCell id="WIyWlLk6GJQsqaUBKTNV-1" parent="WIyWlLk6GJQsqaUBKTNV-0" />
        <mxCell id="LlKvp34tVeATpkxpAkD_-2" value="" style="edgeStyle=orthogonalEdgeStyle;rounded=0;orthogonalLoop=1;jettySize=auto;html=1;" edge="1" parent="WIyWlLk6GJQsqaUBKTNV-1" source="LlKvp34tVeATpkxpAkD_-0" target="LlKvp34tVeATpkxpAkD_-1">
          <mxGeometry relative="1" as="geometry" />
        </mxCell>
        <mxCell id="LlKvp34tVeATpkxpAkD_-0" value="&lt;b&gt;START&lt;/b&gt;" style="rounded=1;whiteSpace=wrap;html=1;" vertex="1" parent="WIyWlLk6GJQsqaUBKTNV-1">
          <mxGeometry x="360" y="10" width="120" height="60" as="geometry" />
        </mxCell>
        <mxCell id="LlKvp34tVeATpkxpAkD_-4" value="" style="edgeStyle=orthogonalEdgeStyle;rounded=0;orthogonalLoop=1;jettySize=auto;html=1;" edge="1" parent="WIyWlLk6GJQsqaUBKTNV-1" source="LlKvp34tVeATpkxpAkD_-1" target="LlKvp34tVeATpkxpAkD_-3">
          <mxGeometry relative="1" as="geometry" />
        </mxCell>
        <mxCell id="LlKvp34tVeATpkxpAkD_-1" value="&lt;b&gt;Read:&lt;/b&gt;&lt;br&gt;&amp;nbsp;num1, &lt;br&gt;num2,&lt;br&gt;num3" style="shape=parallelogram;perimeter=parallelogramPerimeter;whiteSpace=wrap;html=1;fixedSize=1;rounded=1;" vertex="1" parent="WIyWlLk6GJQsqaUBKTNV-1">
          <mxGeometry x="360" y="90" width="120" height="60" as="geometry" />
        </mxCell>
        <mxCell id="LlKvp34tVeATpkxpAkD_-11" style="edgeStyle=orthogonalEdgeStyle;rounded=0;orthogonalLoop=1;jettySize=auto;html=1;entryX=0.5;entryY=0;entryDx=0;entryDy=0;" edge="1" parent="WIyWlLk6GJQsqaUBKTNV-1" target="LlKvp34tVeATpkxpAkD_-8">
          <mxGeometry relative="1" as="geometry">
            <mxPoint x="480" y="220" as="sourcePoint" />
            <Array as="points">
              <mxPoint x="618" y="220" />
            </Array>
          </mxGeometry>
        </mxCell>
        <mxCell id="LlKvp34tVeATpkxpAkD_-12" style="edgeStyle=orthogonalEdgeStyle;rounded=0;orthogonalLoop=1;jettySize=auto;html=1;entryX=0.5;entryY=0;entryDx=0;entryDy=0;" edge="1" parent="WIyWlLk6GJQsqaUBKTNV-1" source="LlKvp34tVeATpkxpAkD_-3" target="LlKvp34tVeATpkxpAkD_-7">
          <mxGeometry relative="1" as="geometry" />
        </mxCell>
        <mxCell id="LlKvp34tVeATpkxpAkD_-3" value="is num1&amp;gt;num2?" style="rhombus;whiteSpace=wrap;html=1;rounded=1;" vertex="1" parent="WIyWlLk6GJQsqaUBKTNV-1">
          <mxGeometry x="362.5" y="180" width="115" height="80" as="geometry" />
        </mxCell>
        <mxCell id="LlKvp34tVeATpkxpAkD_-14" style="edgeStyle=orthogonalEdgeStyle;rounded=0;orthogonalLoop=1;jettySize=auto;html=1;" edge="1" parent="WIyWlLk6GJQsqaUBKTNV-1" source="LlKvp34tVeATpkxpAkD_-7">
          <mxGeometry relative="1" as="geometry">
            <mxPoint x="400" y="280" as="targetPoint" />
          </mxGeometry>
        </mxCell>
        <mxCell id="LlKvp34tVeATpkxpAkD_-17" style="edgeStyle=orthogonalEdgeStyle;rounded=0;orthogonalLoop=1;jettySize=auto;html=1;exitX=1;exitY=0.5;exitDx=0;exitDy=0;entryX=0.5;entryY=0;entryDx=0;entryDy=0;" edge="1" parent="WIyWlLk6GJQsqaUBKTNV-1" source="LlKvp34tVeATpkxpAkD_-7" target="LlKvp34tVeATpkxpAkD_-19">
          <mxGeometry relative="1" as="geometry">
            <mxPoint x="403" y="330" as="targetPoint" />
            <Array as="points">
              <mxPoint x="410" y="280" />
              <mxPoint x="410" y="360" />
            </Array>
          </mxGeometry>
        </mxCell>
        <mxCell id="LlKvp34tVeATpkxpAkD_-22" value="" style="edgeStyle=orthogonalEdgeStyle;rounded=0;orthogonalLoop=1;jettySize=auto;html=1;" edge="1" parent="WIyWlLk6GJQsqaUBKTNV-1" source="LlKvp34tVeATpkxpAkD_-7" target="LlKvp34tVeATpkxpAkD_-20">
          <mxGeometry relative="1" as="geometry" />
        </mxCell>
        <mxCell id="LlKvp34tVeATpkxpAkD_-7" value="is num2&amp;gt;num3?" style="rhombus;whiteSpace=wrap;html=1;rounded=1;" vertex="1" parent="WIyWlLk6GJQsqaUBKTNV-1">
          <mxGeometry x="180" y="240" width="100" height="80" as="geometry" />
        </mxCell>
        <mxCell id="LlKvp34tVeATpkxpAkD_-13" style="edgeStyle=orthogonalEdgeStyle;rounded=0;orthogonalLoop=1;jettySize=auto;html=1;" edge="1" parent="WIyWlLk6GJQsqaUBKTNV-1" source="LlKvp34tVeATpkxpAkD_-8">
          <mxGeometry relative="1" as="geometry">
            <mxPoint x="410" y="280" as="targetPoint" />
            <Array as="points">
              <mxPoint x="420" y="280" />
              <mxPoint x="420" y="280" />
            </Array>
          </mxGeometry>
        </mxCell>
        <mxCell id="LlKvp34tVeATpkxpAkD_-18" style="edgeStyle=orthogonalEdgeStyle;rounded=0;orthogonalLoop=1;jettySize=auto;html=1;" edge="1" parent="WIyWlLk6GJQsqaUBKTNV-1" source="LlKvp34tVeATpkxpAkD_-8" target="LlKvp34tVeATpkxpAkD_-19">
          <mxGeometry relative="1" as="geometry">
            <mxPoint x="402.5" y="330" as="targetPoint" />
            <Array as="points">
              <mxPoint x="410" y="280" />
            </Array>
          </mxGeometry>
        </mxCell>
        <mxCell id="LlKvp34tVeATpkxpAkD_-23" value="" style="edgeStyle=orthogonalEdgeStyle;rounded=0;orthogonalLoop=1;jettySize=auto;html=1;" edge="1" parent="WIyWlLk6GJQsqaUBKTNV-1" source="LlKvp34tVeATpkxpAkD_-8" target="LlKvp34tVeATpkxpAkD_-21">
          <mxGeometry relative="1" as="geometry" />
        </mxCell>
        <mxCell id="LlKvp34tVeATpkxpAkD_-8" value="is num1&amp;gt;num3?" style="rhombus;whiteSpace=wrap;html=1;rounded=1;" vertex="1" parent="WIyWlLk6GJQsqaUBKTNV-1">
          <mxGeometry x="560" y="240" width="115" height="80" as="geometry" />
        </mxCell>
        <mxCell id="LlKvp34tVeATpkxpAkD_-29" value="" style="edgeStyle=orthogonalEdgeStyle;rounded=0;orthogonalLoop=1;jettySize=auto;html=1;fontSize=9;" edge="1" parent="WIyWlLk6GJQsqaUBKTNV-1" source="LlKvp34tVeATpkxpAkD_-19" target="LlKvp34tVeATpkxpAkD_-28">
          <mxGeometry relative="1" as="geometry" />
        </mxCell>
        <mxCell id="LlKvp34tVeATpkxpAkD_-19" value="Print num3" style="rounded=0;whiteSpace=wrap;html=1;" vertex="1" parent="WIyWlLk6GJQsqaUBKTNV-1">
          <mxGeometry x="354" y="340" width="120" height="60" as="geometry" />
        </mxCell>
        <mxCell id="LlKvp34tVeATpkxpAkD_-25" value="" style="edgeStyle=orthogonalEdgeStyle;rounded=0;orthogonalLoop=1;jettySize=auto;html=1;fontSize=9;" edge="1" parent="WIyWlLk6GJQsqaUBKTNV-1" source="LlKvp34tVeATpkxpAkD_-20" target="LlKvp34tVeATpkxpAkD_-24">
          <mxGeometry relative="1" as="geometry" />
        </mxCell>
        <mxCell id="LlKvp34tVeATpkxpAkD_-20" value="Print num2" style="rounded=0;whiteSpace=wrap;html=1;" vertex="1" parent="WIyWlLk6GJQsqaUBKTNV-1">
          <mxGeometry x="170" y="340" width="120" height="60" as="geometry" />
        </mxCell>
        <mxCell id="LlKvp34tVeATpkxpAkD_-27" value="" style="edgeStyle=orthogonalEdgeStyle;rounded=0;orthogonalLoop=1;jettySize=auto;html=1;fontSize=9;" edge="1" parent="WIyWlLk6GJQsqaUBKTNV-1" source="LlKvp34tVeATpkxpAkD_-21" target="LlKvp34tVeATpkxpAkD_-26">
          <mxGeometry relative="1" as="geometry" />
        </mxCell>
        <mxCell id="LlKvp34tVeATpkxpAkD_-21" value="Print num1" style="rounded=0;whiteSpace=wrap;html=1;" vertex="1" parent="WIyWlLk6GJQsqaUBKTNV-1">
          <mxGeometry x="557.5" y="340" width="120" height="60" as="geometry" />
        </mxCell>
        <mxCell id="LlKvp34tVeATpkxpAkD_-69" style="edgeStyle=orthogonalEdgeStyle;rounded=0;orthogonalLoop=1;jettySize=auto;html=1;fontSize=9;" edge="1" parent="WIyWlLk6GJQsqaUBKTNV-1" source="LlKvp34tVeATpkxpAkD_-24">
          <mxGeometry relative="1" as="geometry">
            <mxPoint x="290" y="510" as="targetPoint" />
          </mxGeometry>
        </mxCell>
        <mxCell id="LlKvp34tVeATpkxpAkD_-83" style="edgeStyle=orthogonalEdgeStyle;rounded=0;orthogonalLoop=1;jettySize=auto;html=1;fontSize=9;" edge="1" parent="WIyWlLk6GJQsqaUBKTNV-1" source="LlKvp34tVeATpkxpAkD_-24">
          <mxGeometry relative="1" as="geometry">
            <mxPoint x="170" y="509.9999999999999" as="targetPoint" />
          </mxGeometry>
        </mxCell>
        <mxCell id="LlKvp34tVeATpkxpAkD_-24" value="&lt;font style=&quot;font-size: 9px;&quot;&gt;is num3&amp;gt;num1&lt;/font&gt;" style="rhombus;whiteSpace=wrap;html=1;" vertex="1" parent="WIyWlLk6GJQsqaUBKTNV-1">
          <mxGeometry x="190" y="420" width="80" height="80" as="geometry" />
        </mxCell>
        <mxCell id="LlKvp34tVeATpkxpAkD_-79" style="edgeStyle=orthogonalEdgeStyle;rounded=0;orthogonalLoop=1;jettySize=auto;html=1;entryX=0.5;entryY=0;entryDx=0;entryDy=0;fontSize=9;" edge="1" parent="WIyWlLk6GJQsqaUBKTNV-1" source="LlKvp34tVeATpkxpAkD_-26" target="LlKvp34tVeATpkxpAkD_-57">
          <mxGeometry relative="1" as="geometry" />
        </mxCell>
        <mxCell id="LlKvp34tVeATpkxpAkD_-80" style="edgeStyle=orthogonalEdgeStyle;rounded=0;orthogonalLoop=1;jettySize=auto;html=1;fontSize=9;" edge="1" parent="WIyWlLk6GJQsqaUBKTNV-1" source="LlKvp34tVeATpkxpAkD_-26">
          <mxGeometry relative="1" as="geometry">
            <mxPoint x="540" y="509.9999999999999" as="targetPoint" />
          </mxGeometry>
        </mxCell>
        <mxCell id="LlKvp34tVeATpkxpAkD_-26" value="&lt;font style=&quot;font-size: 9px;&quot;&gt;is num3&amp;gt;num2&lt;/font&gt;" style="rhombus;whiteSpace=wrap;html=1;" vertex="1" parent="WIyWlLk6GJQsqaUBKTNV-1">
          <mxGeometry x="577.5" y="420" width="80" height="80" as="geometry" />
        </mxCell>
        <mxCell id="LlKvp34tVeATpkxpAkD_-70" style="edgeStyle=orthogonalEdgeStyle;rounded=0;orthogonalLoop=1;jettySize=auto;html=1;fontSize=9;" edge="1" parent="WIyWlLk6GJQsqaUBKTNV-1" source="LlKvp34tVeATpkxpAkD_-28">
          <mxGeometry relative="1" as="geometry">
            <mxPoint x="480" y="509.9999999999999" as="targetPoint" />
          </mxGeometry>
        </mxCell>
        <mxCell id="LlKvp34tVeATpkxpAkD_-82" style="edgeStyle=orthogonalEdgeStyle;rounded=0;orthogonalLoop=1;jettySize=auto;html=1;fontSize=9;" edge="1" parent="WIyWlLk6GJQsqaUBKTNV-1" source="LlKvp34tVeATpkxpAkD_-28">
          <mxGeometry relative="1" as="geometry">
            <mxPoint x="350" y="509.9999999999999" as="targetPoint" />
          </mxGeometry>
        </mxCell>
        <mxCell id="LlKvp34tVeATpkxpAkD_-28" value="&lt;font style=&quot;font-size: 9px;&quot;&gt;is num2&amp;gt;num1&lt;/font&gt;" style="rhombus;whiteSpace=wrap;html=1;" vertex="1" parent="WIyWlLk6GJQsqaUBKTNV-1">
          <mxGeometry x="374" y="420" width="80" height="80" as="geometry" />
        </mxCell>
        <mxCell id="LlKvp34tVeATpkxpAkD_-32" value="stop" style="rounded=1;whiteSpace=wrap;html=1;fontSize=9;" vertex="1" parent="WIyWlLk6GJQsqaUBKTNV-1">
          <mxGeometry x="334" y="680" width="120" height="60" as="geometry" />
        </mxCell>
        <mxCell id="LlKvp34tVeATpkxpAkD_-42" value="" style="edgeStyle=orthogonalEdgeStyle;rounded=0;orthogonalLoop=1;jettySize=auto;html=1;fontSize=9;" edge="1" parent="WIyWlLk6GJQsqaUBKTNV-1" source="LlKvp34tVeATpkxpAkD_-43" target="LlKvp34tVeATpkxpAkD_-44">
          <mxGeometry relative="1" as="geometry" />
        </mxCell>
        <mxCell id="LlKvp34tVeATpkxpAkD_-43" value="print num3" style="rounded=0;whiteSpace=wrap;html=1;fontSize=9;" vertex="1" parent="WIyWlLk6GJQsqaUBKTNV-1">
          <mxGeometry x="260" y="510" width="50" height="40" as="geometry" />
        </mxCell>
        <mxCell id="LlKvp34tVeATpkxpAkD_-63" style="edgeStyle=orthogonalEdgeStyle;rounded=0;orthogonalLoop=1;jettySize=auto;html=1;fontSize=9;" edge="1" parent="WIyWlLk6GJQsqaUBKTNV-1" source="LlKvp34tVeATpkxpAkD_-44">
          <mxGeometry relative="1" as="geometry">
            <mxPoint x="285" y="660" as="targetPoint" />
          </mxGeometry>
        </mxCell>
        <mxCell id="LlKvp34tVeATpkxpAkD_-44" value="print num1" style="rounded=0;whiteSpace=wrap;html=1;fontSize=9;" vertex="1" parent="WIyWlLk6GJQsqaUBKTNV-1">
          <mxGeometry x="260" y="580" width="50" height="30" as="geometry" />
        </mxCell>
        <mxCell id="LlKvp34tVeATpkxpAkD_-45" value="" style="edgeStyle=orthogonalEdgeStyle;rounded=0;orthogonalLoop=1;jettySize=auto;html=1;fontSize=9;" edge="1" parent="WIyWlLk6GJQsqaUBKTNV-1" source="LlKvp34tVeATpkxpAkD_-46" target="LlKvp34tVeATpkxpAkD_-47">
          <mxGeometry relative="1" as="geometry" />
        </mxCell>
        <mxCell id="LlKvp34tVeATpkxpAkD_-46" value="print num1" style="rounded=0;whiteSpace=wrap;html=1;fontSize=9;" vertex="1" parent="WIyWlLk6GJQsqaUBKTNV-1">
          <mxGeometry x="150" y="510" width="50" height="40" as="geometry" />
        </mxCell>
        <mxCell id="LlKvp34tVeATpkxpAkD_-62" style="edgeStyle=orthogonalEdgeStyle;rounded=0;orthogonalLoop=1;jettySize=auto;html=1;fontSize=9;" edge="1" parent="WIyWlLk6GJQsqaUBKTNV-1" source="LlKvp34tVeATpkxpAkD_-47" target="LlKvp34tVeATpkxpAkD_-32">
          <mxGeometry relative="1" as="geometry">
            <Array as="points">
              <mxPoint x="175" y="660" />
              <mxPoint x="394" y="660" />
            </Array>
          </mxGeometry>
        </mxCell>
        <mxCell id="LlKvp34tVeATpkxpAkD_-47" value="print num3" style="rounded=0;whiteSpace=wrap;html=1;fontSize=9;" vertex="1" parent="WIyWlLk6GJQsqaUBKTNV-1">
          <mxGeometry x="150" y="590" width="50" height="30" as="geometry" />
        </mxCell>
        <mxCell id="LlKvp34tVeATpkxpAkD_-50" value="" style="edgeStyle=orthogonalEdgeStyle;rounded=0;orthogonalLoop=1;jettySize=auto;html=1;fontSize=9;" edge="1" parent="WIyWlLk6GJQsqaUBKTNV-1" source="LlKvp34tVeATpkxpAkD_-51" target="LlKvp34tVeATpkxpAkD_-52">
          <mxGeometry relative="1" as="geometry" />
        </mxCell>
        <mxCell id="LlKvp34tVeATpkxpAkD_-51" value="print num2" style="rounded=0;whiteSpace=wrap;html=1;fontSize=9;" vertex="1" parent="WIyWlLk6GJQsqaUBKTNV-1">
          <mxGeometry x="454" y="510" width="50" height="40" as="geometry" />
        </mxCell>
        <mxCell id="LlKvp34tVeATpkxpAkD_-66" style="edgeStyle=orthogonalEdgeStyle;rounded=0;orthogonalLoop=1;jettySize=auto;html=1;fontSize=9;" edge="1" parent="WIyWlLk6GJQsqaUBKTNV-1" source="LlKvp34tVeATpkxpAkD_-52">
          <mxGeometry relative="1" as="geometry">
            <mxPoint x="455" y="659.9999999999999" as="targetPoint" />
          </mxGeometry>
        </mxCell>
        <mxCell id="LlKvp34tVeATpkxpAkD_-52" value="print num1" style="rounded=0;whiteSpace=wrap;html=1;fontSize=9;" vertex="1" parent="WIyWlLk6GJQsqaUBKTNV-1">
          <mxGeometry x="454" y="590" width="50" height="30" as="geometry" />
        </mxCell>
        <mxCell id="LlKvp34tVeATpkxpAkD_-53" value="" style="edgeStyle=orthogonalEdgeStyle;rounded=0;orthogonalLoop=1;jettySize=auto;html=1;fontSize=9;" edge="1" parent="WIyWlLk6GJQsqaUBKTNV-1" source="LlKvp34tVeATpkxpAkD_-54" target="LlKvp34tVeATpkxpAkD_-55">
          <mxGeometry relative="1" as="geometry" />
        </mxCell>
        <mxCell id="LlKvp34tVeATpkxpAkD_-54" value="print num1" style="rounded=0;whiteSpace=wrap;html=1;fontSize=9;" vertex="1" parent="WIyWlLk6GJQsqaUBKTNV-1">
          <mxGeometry x="324" y="510" width="50" height="40" as="geometry" />
        </mxCell>
        <mxCell id="LlKvp34tVeATpkxpAkD_-64" style="edgeStyle=orthogonalEdgeStyle;rounded=0;orthogonalLoop=1;jettySize=auto;html=1;fontSize=9;" edge="1" parent="WIyWlLk6GJQsqaUBKTNV-1" source="LlKvp34tVeATpkxpAkD_-55">
          <mxGeometry relative="1" as="geometry">
            <mxPoint x="365" y="659.9999999999999" as="targetPoint" />
          </mxGeometry>
        </mxCell>
        <mxCell id="LlKvp34tVeATpkxpAkD_-55" value="print num2" style="rounded=0;whiteSpace=wrap;html=1;fontSize=9;" vertex="1" parent="WIyWlLk6GJQsqaUBKTNV-1">
          <mxGeometry x="340" y="590" width="50" height="30" as="geometry" />
        </mxCell>
        <mxCell id="LlKvp34tVeATpkxpAkD_-56" value="" style="edgeStyle=orthogonalEdgeStyle;rounded=0;orthogonalLoop=1;jettySize=auto;html=1;fontSize=9;" edge="1" parent="WIyWlLk6GJQsqaUBKTNV-1" source="LlKvp34tVeATpkxpAkD_-57" target="LlKvp34tVeATpkxpAkD_-58">
          <mxGeometry relative="1" as="geometry" />
        </mxCell>
        <mxCell id="LlKvp34tVeATpkxpAkD_-57" value="print num3" style="rounded=0;whiteSpace=wrap;html=1;fontSize=9;" vertex="1" parent="WIyWlLk6GJQsqaUBKTNV-1">
          <mxGeometry x="730" y="510" width="50" height="40" as="geometry" />
        </mxCell>
        <mxCell id="LlKvp34tVeATpkxpAkD_-65" style="edgeStyle=orthogonalEdgeStyle;rounded=0;orthogonalLoop=1;jettySize=auto;html=1;entryX=0.5;entryY=0;entryDx=0;entryDy=0;fontSize=9;" edge="1" parent="WIyWlLk6GJQsqaUBKTNV-1" source="LlKvp34tVeATpkxpAkD_-58" target="LlKvp34tVeATpkxpAkD_-32">
          <mxGeometry relative="1" as="geometry">
            <Array as="points">
              <mxPoint x="760" y="660" />
              <mxPoint x="394" y="660" />
            </Array>
          </mxGeometry>
        </mxCell>
        <mxCell id="LlKvp34tVeATpkxpAkD_-58" value="print num2" style="rounded=0;whiteSpace=wrap;html=1;fontSize=9;" vertex="1" parent="WIyWlLk6GJQsqaUBKTNV-1">
          <mxGeometry x="730" y="580" width="50" height="30" as="geometry" />
        </mxCell>
        <mxCell id="LlKvp34tVeATpkxpAkD_-59" value="" style="edgeStyle=orthogonalEdgeStyle;rounded=0;orthogonalLoop=1;jettySize=auto;html=1;fontSize=9;" edge="1" parent="WIyWlLk6GJQsqaUBKTNV-1" source="LlKvp34tVeATpkxpAkD_-60" target="LlKvp34tVeATpkxpAkD_-61">
          <mxGeometry relative="1" as="geometry" />
        </mxCell>
        <mxCell id="LlKvp34tVeATpkxpAkD_-60" value="print num2" style="rounded=0;whiteSpace=wrap;html=1;fontSize=9;" vertex="1" parent="WIyWlLk6GJQsqaUBKTNV-1">
          <mxGeometry x="527.5" y="510" width="50" height="40" as="geometry" />
        </mxCell>
        <mxCell id="LlKvp34tVeATpkxpAkD_-67" style="edgeStyle=orthogonalEdgeStyle;rounded=0;orthogonalLoop=1;jettySize=auto;html=1;fontSize=9;" edge="1" parent="WIyWlLk6GJQsqaUBKTNV-1" source="LlKvp34tVeATpkxpAkD_-61">
          <mxGeometry relative="1" as="geometry">
            <mxPoint x="572.5" y="659.9999999999999" as="targetPoint" />
          </mxGeometry>
        </mxCell>
        <mxCell id="LlKvp34tVeATpkxpAkD_-61" value="print num3" style="rounded=0;whiteSpace=wrap;html=1;fontSize=9;" vertex="1" parent="WIyWlLk6GJQsqaUBKTNV-1">
          <mxGeometry x="547.5" y="590" width="50" height="30" as="geometry" />
        </mxCell>
        <mxCell id="LlKvp34tVeATpkxpAkD_-84" value="&lt;b&gt;TRUE&lt;/b&gt;" style="text;html=1;align=center;verticalAlign=middle;resizable=0;points=[];autosize=1;strokeColor=none;fillColor=none;fontSize=9;" vertex="1" parent="WIyWlLk6GJQsqaUBKTNV-1">
          <mxGeometry x="487.5" y="200" width="40" height="20" as="geometry" />
        </mxCell>
        <mxCell id="LlKvp34tVeATpkxpAkD_-85" value="&lt;b&gt;FALSE&lt;/b&gt;" style="text;html=1;align=center;verticalAlign=middle;resizable=0;points=[];autosize=1;strokeColor=none;fillColor=none;fontSize=9;" vertex="1" parent="WIyWlLk6GJQsqaUBKTNV-1">
          <mxGeometry x="314" y="200" width="40" height="20" as="geometry" />
        </mxCell>
        <mxCell id="LlKvp34tVeATpkxpAkD_-86" value="&lt;b&gt;FALSE&lt;/b&gt;" style="text;html=1;align=center;verticalAlign=middle;resizable=0;points=[];autosize=1;strokeColor=none;fillColor=none;fontSize=9;" vertex="1" parent="WIyWlLk6GJQsqaUBKTNV-1">
          <mxGeometry x="290" y="260" width="40" height="20" as="geometry" />
        </mxCell>
        <mxCell id="LlKvp34tVeATpkxpAkD_-87" value="&lt;b&gt;FALSE&lt;/b&gt;" style="text;html=1;align=center;verticalAlign=middle;resizable=0;points=[];autosize=1;strokeColor=none;fillColor=none;fontSize=9;" vertex="1" parent="WIyWlLk6GJQsqaUBKTNV-1">
          <mxGeometry x="510" y="260" width="40" height="20" as="geometry" />
        </mxCell>
        <mxCell id="LlKvp34tVeATpkxpAkD_-88" value="&lt;b&gt;TRUE&lt;/b&gt;" style="text;html=1;align=center;verticalAlign=middle;resizable=0;points=[];autosize=1;strokeColor=none;fillColor=none;fontSize=9;" vertex="1" parent="WIyWlLk6GJQsqaUBKTNV-1">
          <mxGeometry x="230" y="310" width="40" height="20" as="geometry" />
        </mxCell>
        <mxCell id="LlKvp34tVeATpkxpAkD_-89" value="&lt;b&gt;TRUE&lt;/b&gt;" style="text;html=1;align=center;verticalAlign=middle;resizable=0;points=[];autosize=1;strokeColor=none;fillColor=none;fontSize=9;" vertex="1" parent="WIyWlLk6GJQsqaUBKTNV-1">
          <mxGeometry x="617.5" y="310" width="40" height="20" as="geometry" />
        </mxCell>
        <mxCell id="LlKvp34tVeATpkxpAkD_-90" value="&lt;b&gt;TRUE&lt;/b&gt;" style="text;html=1;align=center;verticalAlign=middle;resizable=0;points=[];autosize=1;strokeColor=none;fillColor=none;fontSize=9;" vertex="1" parent="WIyWlLk6GJQsqaUBKTNV-1">
          <mxGeometry x="265" y="440" width="40" height="20" as="geometry" />
        </mxCell>
        <mxCell id="LlKvp34tVeATpkxpAkD_-91" value="&lt;b&gt;TRUE&lt;/b&gt;" style="text;html=1;align=center;verticalAlign=middle;resizable=0;points=[];autosize=1;strokeColor=none;fillColor=none;fontSize=9;" vertex="1" parent="WIyWlLk6GJQsqaUBKTNV-1">
          <mxGeometry x="460" y="440" width="40" height="20" as="geometry" />
        </mxCell>
        <mxCell id="LlKvp34tVeATpkxpAkD_-94" value="&lt;b&gt;TRUE&lt;/b&gt;" style="text;html=1;align=center;verticalAlign=middle;resizable=0;points=[];autosize=1;strokeColor=none;fillColor=none;fontSize=9;" vertex="1" parent="WIyWlLk6GJQsqaUBKTNV-1">
          <mxGeometry x="670" y="440" width="40" height="20" as="geometry" />
        </mxCell>
        <mxCell id="LlKvp34tVeATpkxpAkD_-95" value="&lt;b&gt;FALSE&lt;/b&gt;" style="text;html=1;align=center;verticalAlign=middle;resizable=0;points=[];autosize=1;strokeColor=none;fillColor=none;fontSize=9;" vertex="1" parent="WIyWlLk6GJQsqaUBKTNV-1">
          <mxGeometry x="530" y="440" width="40" height="20" as="geometry" />
        </mxCell>
        <mxCell id="LlKvp34tVeATpkxpAkD_-96" value="&lt;b&gt;FALSE&lt;/b&gt;" style="text;html=1;align=center;verticalAlign=middle;resizable=0;points=[];autosize=1;strokeColor=none;fillColor=none;fontSize=9;" vertex="1" parent="WIyWlLk6GJQsqaUBKTNV-1">
          <mxGeometry x="340" y="440" width="40" height="20" as="geometry" />
        </mxCell>
        <mxCell id="LlKvp34tVeATpkxpAkD_-97" value="&lt;b&gt;FALSE&lt;/b&gt;" style="text;html=1;align=center;verticalAlign=middle;resizable=0;points=[];autosize=1;strokeColor=none;fillColor=none;fontSize=9;" vertex="1" parent="WIyWlLk6GJQsqaUBKTNV-1">
          <mxGeometry x="150" y="440" width="40" height="20" as="geometry" />
        </mxCell>
      </root>
    </mxGraphModel>
  </diagram>
</mxfile>
